<?xml version="1.0" standalone="no"?>
<!DOCTYPE svg PUBLIC "-//W3C//DTD SVG 20010904//EN"
 "http://www.w3.org/TR/2001/REC-SVG-20010904/DTD/svg10.dtd">
<svg version="1.0" xmlns="http://www.w3.org/2000/svg"
 width="384.000000pt" height="384.000000pt" viewBox="0 0 384.000000 384.000000"
 preserveAspectRatio="xMidYMid meet">

<g transform="translate(0.000000,384.000000) scale(0.100000,-0.100000)"
fill="#000000" stroke="none">
<path d="M1252 3446 c-24 -8 -51 -21 -60 -29 -9 -8 -46 -29 -81 -47 -141 -70
-229 -199 -239 -345 -5 -86 8 -133 52 -184 63 -73 97 -121 91 -131 -3 -5 -20
-47 -37 -92 -28 -75 -31 -97 -36 -226 -6 -209 29 -542 58 -542 4 0 16 41 25
92 19 107 105 433 134 507 39 103 115 182 211 217 65 23 219 22 360 -4 175
-31 217 -34 461 -33 262 1 313 -8 399 -68 111 -77 150 -171 176 -426 22 -216
12 -616 -17 -721 -11 -38 -31 -108 -44 -156 -44 -159 -120 -274 -282 -429 -89
-85 -258 -209 -324 -238 -137 -60 -388 -45 -533 32 -80 42 -278 239 -369 367
-99 139 -141 232 -178 390 -17 74 -35 160 -40 190 -6 41 -7 26 -4 -62 3 -102
1 -119 -13 -128 -14 -8 -12 -9 10 -10 25 0 29 -6 48 -72 12 -40 26 -89 32
-108 22 -70 71 -162 127 -238 72 -96 269 -286 345 -331 213 -127 472 -129 679
-5 109 66 242 171 319 253 76 80 134 178 188 314 21 54 25 58 49 52 23 -6 24
-5 9 7 -15 12 -15 19 2 104 19 91 51 197 76 245 7 15 32 41 54 59 38 30 50 50
31 50 -23 0 -73 -56 -100 -112 -24 -52 -30 -58 -36 -39 -9 31 12 158 41 238
29 80 87 315 104 426 15 89 8 235 -13 315 l-15 54 33 31 c18 18 50 48 72 68
63 58 78 98 78 214 0 88 -3 107 -27 157 -31 68 -98 142 -174 194 -30 20 -54
41 -54 46 0 5 -24 20 -52 33 -63 29 -141 33 -196 9 -20 -9 -55 -18 -76 -21
-22 -2 -51 -10 -66 -18 -36 -19 -103 -93 -119 -133 -11 -27 -18 -32 -35 -27
-12 3 -60 9 -107 12 -66 4 -98 2 -137 -11 l-52 -18 -57 29 c-49 24 -73 28
-160 31 -97 4 -103 5 -103 26 0 32 -55 121 -92 150 -18 13 -46 27 -63 31 -16
4 -55 20 -85 35 -69 35 -131 44 -188 26z"/>
<path d="M1405 2260 c-61 -10 -108 -34 -149 -75 -53 -53 -34 -65 39 -26 71 38
144 41 253 11 108 -30 152 -24 152 20 0 55 -163 94 -295 70z"/>
<path d="M2235 2205 c-52 -20 -69 -38 -61 -63 10 -29 31 -31 131 -10 141 29
220 14 292 -55 18 -17 36 -28 39 -24 23 23 -48 111 -115 143 -50 24 -230 30
-286 9z"/>
<path d="M1400 1939 c-14 -6 -44 -9 -66 -6 -37 4 -41 2 -37 -14 6 -22 0 -23
-29 -8 -18 9 -19 8 -13 -10 5 -16 2 -21 -12 -21 -11 0 -24 5 -31 12 -8 8 -12
8 -12 1 0 -6 7 -16 15 -23 24 -20 17 -33 -15 -28 -29 4 -29 4 -13 -14 11 -12
13 -22 7 -26 -6 -4 -4 -13 7 -24 16 -15 19 -15 41 9 12 14 43 39 67 56 36 24
43 26 36 11 -14 -32 -17 -87 -7 -114 9 -23 18 -27 97 -38 76 -11 90 -11 111 3
32 20 37 19 31 -7 -5 -20 -3 -19 18 7 31 37 33 95 6 148 -10 20 -17 37 -14 37
21 0 70 -53 90 -97 29 -63 39 -64 23 -3 -15 57 -79 124 -137 144 -52 18 -125
20 -163 5z m49 -73 c14 -17 -1 -56 -22 -56 -31 0 -51 53 -24 63 22 9 34 7 46
-7z"/>
<path d="M2265 1881 c-83 -21 -165 -99 -165 -158 0 -12 5 -9 16 12 20 39 53
74 86 91 39 20 41 18 18 -14 -33 -44 -43 -105 -26 -147 l15 -35 86 0 c61 0 93
5 110 16 21 14 24 14 33 -2 9 -16 11 -15 22 6 7 13 13 48 14 78 l0 54 41 -44
c23 -23 46 -52 52 -63 11 -19 12 -19 32 -1 11 10 18 23 15 28 -3 5 2 16 12 24
17 12 17 13 2 8 -10 -3 -25 -3 -34 0 -15 6 -14 10 6 31 l24 25 -33 -6 c-30 -6
-33 -5 -27 13 6 17 3 20 -19 15 -27 -5 -33 6 -13 26 10 10 6 11 -20 6 -22 -4
-47 0 -79 14 -57 23 -126 33 -168 23z m39 -86 c9 -25 -5 -45 -30 -45 -14 0
-27 7 -30 15 -10 25 4 45 30 45 13 0 26 -7 30 -15z"/>
<path d="M860 1842 c0 -5 12 -19 26 -33 15 -13 35 -42 45 -64 22 -48 25 -29 4
23 -22 52 -75 105 -75 74z"/>
<path d="M1730 1346 c0 -66 78 -112 176 -104 49 4 62 10 86 37 15 17 28 41 28
53 l0 22 -16 -22 c-50 -71 -195 -69 -252 3 -16 21 -22 23 -22 11z"/>
<path d="M2829 1253 c-13 -16 -12 -17 4 -4 16 13 21 21 13 21 -2 0 -10 -8 -17
-17z"/>
<path d="M1450 1185 c0 -17 54 -122 78 -151 58 -70 190 -155 262 -168 l35 -6
-30 15 -30 15 35 -7 c19 -4 53 -7 75 -6 39 2 40 2 15 -12 -22 -13 -23 -14 -5
-14 42 -1 151 31 204 60 31 16 75 48 98 70 45 44 96 126 87 140 -7 12 -70 11
-236 -3 -164 -13 -265 -4 -443 42 -114 29 -145 35 -145 25z m295 -75 c33 -5
106 -12 162 -15 56 -2 117 -11 135 -19 72 -32 -320 -13 -410 19 -21 8 -3 25
26 25 15 0 54 -5 87 -10z"/>
<path d="M2020 800 c-19 -11 -31 -19 -27 -20 11 0 67 29 67 35 0 7 -1 7 -40
-15z"/>
<path d="M1958 773 c7 -3 16 -2 19 1 4 3 -2 6 -13 5 -11 0 -14 -3 -6 -6z"/>
</g>
</svg>
