<?xml version="1.0" standalone="no"?>
<!DOCTYPE svg PUBLIC "-//W3C//DTD SVG 20010904//EN"
 "http://www.w3.org/TR/2001/REC-SVG-20010904/DTD/svg10.dtd">
<svg version="1.0" xmlns="http://www.w3.org/2000/svg"
 width="384.000000pt" height="384.000000pt" viewBox="0 0 384.000000 384.000000"
 preserveAspectRatio="xMidYMid meet">

<g transform="translate(0.000000,384.000000) scale(0.100000,-0.100000)"
fill="#000000" stroke="none">
<path d="M1655 3635 c-18 -8 -48 -11 -75 -8 -31 3 -80 -4 -163 -25 -64 -17
-122 -34 -129 -38 -6 -4 -49 -36 -96 -71 -47 -34 -96 -63 -108 -63 -39 0 -192
-56 -235 -86 -88 -61 -149 -168 -149 -263 0 -58 19 -116 61 -184 l30 -50 -30
-31 c-70 -73 -114 -313 -91 -501 11 -96 51 -310 71 -377 5 -18 9 -98 9 -178 0
-96 5 -164 15 -200 9 -34 15 -106 16 -190 0 -74 5 -146 10 -160 6 -17 7 -5 4
40 -10 152 -8 929 3 1023 27 222 78 370 161 460 93 100 209 122 502 92 157
-16 201 -16 457 -5 394 18 519 7 649 -56 126 -61 209 -222 239 -464 3 -30 22
-118 40 -194 l34 -140 -11 -185 c-12 -216 -9 -243 28 -260 46 -21 56 1 64 143
8 144 15 172 34 156 10 -8 17 7 33 72 42 165 56 293 56 513 1 231 7 201 -67
340 -9 17 -19 56 -22 88 -5 44 -13 66 -35 91 -37 42 -47 69 -48 135 -1 86 -38
147 -126 215 -41 31 -82 68 -91 82 -36 55 -272 185 -410 227 -191 56 -552 87
-630 52z"/>
<path d="M1070 2381 c-79 -17 -136 -67 -171 -149 -38 -87 -12 -105 54 -38 30
29 60 49 89 57 50 13 230 6 293 -12 36 -10 41 -9 57 11 21 26 24 83 6 97 -39
30 -250 52 -328 34z"/>
<path d="M2105 2365 c-38 -7 -78 -16 -88 -20 -25 -10 -33 -54 -16 -84 14 -24
20 -26 69 -23 30 1 120 3 200 5 164 2 201 -8 277 -77 62 -56 100 -42 72 27
-61 152 -257 218 -514 172z"/>
<path d="M1101 1974 c-57 -15 -67 -21 -114 -63 -34 -31 -73 -103 -82 -153 -11
-59 11 -52 34 11 29 81 105 152 187 176 51 15 67 16 119 5 76 -15 141 -54 182
-111 18 -24 39 -53 48 -64 l15 -20 -7 20 c-3 11 -19 39 -34 61 -78 116 -223
173 -348 138z"/>
<path d="M2174 1956 c-126 -41 -226 -166 -223 -280 l1 -41 9 36 c38 160 145
259 292 267 134 8 242 -59 306 -189 27 -56 31 -60 31 -34 0 78 -84 186 -179
228 -57 25 -179 32 -237 13z"/>
<path d="M1148 1870 c-85 -45 -119 -144 -80 -232 24 -55 77 -97 129 -104 34
-4 35 -3 13 6 -33 15 -69 48 -86 82 -20 39 -17 45 8 13 48 -62 124 -66 184
-10 30 29 34 38 34 86 1 52 1 53 15 29 8 -14 15 -45 15 -70 0 -37 2 -42 11
-26 6 10 9 44 7 76 -9 129 -140 208 -250 150z m42 -64 c24 -46 -10 -80 -56
-56 -30 16 -30 33 -2 60 28 26 42 25 58 -4z"/>
<path d="M2152 1843 c-77 -50 -104 -153 -62 -237 33 -64 72 -89 144 -92 51 -2
55 -2 21 5 -22 4 -52 15 -66 24 -24 16 -69 84 -69 103 1 5 7 -3 16 -18 64
-119 267 -40 240 93 -3 17 -2 28 3 24 18 -10 33 -77 28 -119 l-6 -41 14 30
c21 45 19 121 -6 165 -50 89 -171 119 -257 63z m58 -52 c16 -31 12 -51 -15
-63 -21 -9 -28 -8 -45 7 -24 22 -25 33 -3 57 21 24 50 23 63 -1z m-93 -113
c-3 -8 -6 -5 -6 6 -1 11 2 17 5 13 3 -3 4 -12 1 -19z"/>
<path d="M660 1784 c0 -10 18 -36 41 -57 l40 -38 -19 38 c-11 21 -29 47 -41
57 -21 19 -21 19 -21 0z"/>
<path d="M3092 1730 c-39 -24 -92 -105 -92 -139 1 -23 3 -22 21 14 11 22 43
61 71 86 54 48 54 72 0 39z"/>
<path d="M1492 1720 c0 -14 2 -19 5 -12 2 6 2 18 0 25 -3 6 -5 1 -5 -13z"/>
<path d="M2932 1453 c-6 -21 -18 -61 -26 -90 -15 -48 -122 -281 -199 -431 -47
-92 -116 -172 -210 -245 -130 -101 -401 -286 -451 -307 -138 -62 -484 -48
-641 26 -28 13 -109 72 -180 131 -297 246 -361 341 -419 623 -2 14 -3 3 -1
-25 7 -87 46 -214 96 -310 43 -81 209 -251 351 -357 29 -21 54 -42 58 -47 13
-23 178 -95 244 -107 92 -18 342 -18 421 0 184 41 563 302 692 476 50 67 120
184 167 280 41 82 69 120 90 120 13 0 16 3 8 13 -7 8 -4 52 9 137 21 147 22
150 11 150 -5 0 -14 -17 -20 -37z"/>
<path d="M1460 1201 c0 -30 64 -89 112 -102 63 -18 195 -14 246 6 48 20 82 57
82 91 0 22 0 22 -28 -6 -37 -36 -87 -50 -185 -50 -102 0 -161 16 -198 52 -26
27 -29 28 -29 9z"/>
<path d="M1590 848 c-157 -13 -221 -48 -135 -74 56 -17 516 -19 533 -2 20 20
14 27 -40 42 -123 35 -232 45 -358 34z"/>
<path d="M1345 610 c-3 -6 -3 -19 0 -30 8 -26 55 -28 55 -2 0 33 -40 56 -55
32z"/>
</g>
</svg>
