<?xml version="1.0" standalone="no"?>
<!DOCTYPE svg PUBLIC "-//W3C//DTD SVG 20010904//EN"
 "http://www.w3.org/TR/2001/REC-SVG-20010904/DTD/svg10.dtd">
<svg version="1.0" xmlns="http://www.w3.org/2000/svg"
 width="384.000000pt" height="384.000000pt" viewBox="0 0 384.000000 384.000000"
 preserveAspectRatio="xMidYMid meet">

<g transform="translate(0.000000,384.000000) scale(0.100000,-0.100000)"
fill="#000000" stroke="none">
<path d="M1815 3781 c42 -21 53 -30 37 -30 -73 -3 -125 -57 -137 -143 -9 -64
-25 -78 -86 -78 -57 0 -93 19 -115 62 -14 27 -13 32 7 66 18 30 9 24 -50 -34
-68 -67 -75 -72 -124 -76 -66 -5 -143 -41 -268 -123 -54 -35 -99 -62 -99 -59
0 4 -17 -9 -39 -27 -21 -19 -58 -47 -81 -64 -43 -31 -94 -94 -125 -154 -18
-36 -26 -108 -28 -260 l-2 -93 64 -58 c63 -56 63 -57 53 -91 -6 -19 -13 -50
-16 -69 -8 -49 18 -211 42 -262 15 -31 22 -68 24 -133 2 -49 13 -126 25 -170
45 -172 46 -185 30 -203 -30 -35 -30 -59 4 -207 22 -93 39 -225 39 -300 0
-189 29 -333 94 -470 80 -169 179 -293 350 -441 196 -169 362 -229 571 -204
110 14 162 30 285 88 288 136 537 388 658 665 35 78 61 164 86 278 5 22 10 25
36 21 24 -3 36 2 61 29 33 35 69 108 69 137 0 9 -14 -7 -30 -35 -34 -59 -90
-99 -90 -64 0 11 10 41 22 68 11 26 40 102 62 168 29 86 46 121 59 123 13 3
17 -4 18 -30 2 -61 17 9 18 85 1 74 -14 121 -49 152 l-23 20 7 -21 c4 -15 -3
-32 -25 -60 -17 -21 -42 -56 -55 -76 -13 -21 -29 -38 -34 -38 -19 0 -10 75 14
114 13 21 21 47 19 56 -3 10 3 41 11 70 9 30 16 70 16 89 0 20 7 68 15 106 38
172 38 211 1 336 -22 74 -21 91 19 202 30 85 35 110 34 185 0 48 -4 96 -9 107
-8 18 -9 18 -9 -6 -1 -14 -6 -30 -13 -37 -24 -24 -35 -12 -41 48 -5 64 -34
125 -57 125 -11 0 -14 -11 -12 -42 5 -60 -14 -54 -20 6 -7 66 -37 123 -109
206 -56 62 -154 145 -176 145 -4 0 -16 7 -26 14 -17 13 -17 16 2 52 30 55 28
88 -2 43 -18 -27 -34 -37 -80 -49 -77 -19 -130 -5 -224 61 -40 27 -92 59 -115
69 -52 24 -136 26 -204 5 -27 -8 -58 -15 -70 -15 -24 0 -68 55 -60 76 11 30
76 47 156 41 74 -5 75 -5 35 9 -22 8 -55 15 -72 16 -18 1 -33 4 -33 8 0 16
-229 100 -272 100 -16 0 -4 -9 37 -29z m-626 -344 c-2 -1 -13 -9 -24 -17 -19
-14 -19 -14 -6 3 7 9 18 17 24 17 6 0 8 -1 6 -3z m-65 -48 c-10 -12 -32 -30
-49 -41 -21 -13 -16 -7 14 21 46 44 67 55 35 20z m1081 -824 c194 -12 362 -31
419 -48 l39 -11 -7 -95 c-4 -52 -11 -100 -15 -105 -12 -14 -41 -233 -41 -303
0 -47 -2 -54 -17 -49 -51 14 -225 28 -294 23 -124 -10 -239 -42 -269 -76 -15
-17 -43 -34 -70 -41 -51 -13 -120 -48 -136 -69 -9 -11 -13 -11 -26 3 -9 9 -20
16 -23 16 -4 0 -24 14 -43 32 -42 36 -170 98 -203 98 -38 0 -152 31 -189 52
-77 42 -133 208 -134 400 -1 66 3 121 9 127 6 5 44 17 85 25 68 15 78 14 117
0 32 -12 54 -14 90 -8 26 5 70 7 97 5 48 -3 222 13 316 29 44 7 106 6 295 -5z
m423 -762 c31 -28 69 -193 43 -193 -5 0 -14 7 -21 15 -35 42 -168 100 -267
115 -36 6 -71 14 -76 17 -22 14 53 36 162 48 64 7 121 13 127 14 7 0 21 -7 32
-16z m-788 -102 c36 -34 58 -79 82 -165 23 -85 42 -116 69 -116 33 0 79 29 79
50 0 25 35 93 60 115 20 18 20 17 20 -29 0 -26 6 -61 14 -79 19 -46 80 -97
114 -96 52 2 87 14 85 29 -2 14 56 60 76 60 20 0 20 -19 -1 -45 -21 -27 -21
-27 -1 -16 63 33 87 153 45 225 l-22 38 32 -7 c66 -14 171 -98 150 -120 -4 -5
-1 -5 6 -1 6 4 12 14 12 22 0 16 2 16 22 9 11 -4 13 -26 10 -99 -3 -94 -3 -94
29 -131 26 -29 33 -48 37 -88 8 -109 -57 -283 -138 -366 -31 -31 -48 -40 -88
-46 -59 -8 -73 -5 -168 41 -40 19 -93 38 -120 43 -47 9 -151 7 -229 -5 -37 -5
-39 -5 -20 9 15 12 20 30 23 83 4 65 2 72 -30 119 -33 50 -61 67 -70 43 -3 -7
0 -41 5 -75 10 -59 9 -64 -13 -88 -33 -35 -76 -47 -134 -36 -91 17 -119 76
-81 167 27 65 11 146 -27 132 -23 -9 -59 -116 -65 -195 -5 -64 -3 -77 21 -122
14 -28 26 -53 26 -56 0 -3 -11 -5 -25 -5 -39 0 -115 -33 -179 -78 -33 -23 -69
-42 -81 -42 -39 0 -127 105 -165 195 -29 71 -33 92 -36 191 -3 96 -8 122 -34
187 -16 41 -30 80 -30 87 0 6 -7 24 -15 40 -9 17 -11 30 -5 30 5 0 10 9 10 20
0 27 58 90 98 107 43 18 49 12 25 -23 -12 -19 -18 -45 -17 -85 1 -47 6 -64 33
-101 36 -50 57 -58 162 -58 48 0 59 4 87 31 35 35 57 98 48 141 -8 42 9 34 55
-27 41 -54 41 -55 30 -104 -13 -61 -1 -101 29 -101 48 0 79 65 89 184 6 72 16
112 42 174 19 45 36 76 38 70 2 -5 16 -22 31 -37z m-872 3 c-3 -14 -5 -12 -10
9 -3 19 -2 25 4 19 6 -6 8 -18 6 -28z m1320 -92 c-2 -21 -9 -28 -30 -30 -39
-5 -56 30 -28 58 28 28 63 11 58 -28z m-970 6 c34 -34 -7 -79 -46 -52 -12 8
-22 21 -22 28 0 17 21 36 40 36 9 0 21 -5 28 -12z m162 -187 c0 -22 -35 -51
-62 -51 -26 0 -22 21 10 47 34 28 52 29 52 4z m650 -627 c-71 -17 -206 -32
-350 -38 -149 -6 -86 8 100 24 74 6 160 14 190 19 89 14 124 11 60 -5z m167
-76 c-11 -82 -76 -156 -152 -174 -30 -7 -30 -7 18 46 53 59 64 88 47 120 -10
19 -8 26 22 57 l33 34 18 -23 c14 -16 18 -33 14 -60z m-682 -11 c21 -17 25
-28 20 -48 -8 -31 -40 -52 -66 -44 -22 7 -27 63 -7 95 16 25 21 25 53 -3z"/>
<path d="M2278 3636 c63 -30 66 -31 70 -13 2 10 -10 16 -35 20 -21 3 -49 9
-63 12 -14 4 -1 -5 28 -19z"/>
<path d="M2741 3554 c0 -11 3 -14 6 -6 3 7 2 16 -1 19 -3 4 -6 -2 -5 -13z"/>
<path d="M3211 1550 c-1 -14 -4 -36 -6 -50 l-6 -25 11 25 c6 13 9 36 7 50 l-4
25 -2 -25z"/>
<path d="M3191 1444 c0 -11 3 -14 6 -6 3 7 2 16 -1 19 -3 4 -6 -2 -5 -13z"/>
</g>
</svg>
