<?xml version="1.0" standalone="no"?>
<!DOCTYPE svg PUBLIC "-//W3C//DTD SVG 20010904//EN"
 "http://www.w3.org/TR/2001/REC-SVG-20010904/DTD/svg10.dtd">
<svg version="1.0" xmlns="http://www.w3.org/2000/svg"
 width="384.000000pt" height="384.000000pt" viewBox="0 0 384.000000 384.000000"
 preserveAspectRatio="xMidYMid meet">

<g transform="translate(0.000000,384.000000) scale(0.100000,-0.100000)"
fill="#000000" stroke="none">
<path d="M1518 3663 c7 -3 16 -2 19 1 4 3 -2 6 -13 5 -11 0 -14 -3 -6 -6z"/>
<path d="M1450 3648 c-19 -6 -30 -12 -24 -15 7 -2 27 3 45 11 39 17 29 19 -21
4z"/>
<path d="M1830 3638 c-86 -18 -183 -50 -246 -80 -93 -44 -89 -53 8 -17 78 30
261 91 304 102 38 9 -17 6 -66 -5z"/>
<path d="M1300 3587 c-52 -24 -123 -62 -157 -85 -83 -57 -93 -60 -93 -31 -1
21 -7 18 -50 -29 -27 -31 -56 -76 -67 -105 -16 -46 -22 -52 -68 -70 -78 -30
-94 -39 -130 -74 -49 -48 -81 -107 -105 -198 -19 -69 -21 -97 -17 -205 7 -142
28 -236 81 -356 33 -75 48 -128 77 -274 28 -145 42 -190 70 -230 9 -14 24 -47
33 -73 9 -27 23 -61 31 -77 16 -31 65 -74 74 -65 6 6 20 113 55 427 29 248 35
276 74 338 53 82 187 140 331 143 36 1 184 -7 328 -18 254 -19 268 -19 403 -1
80 10 193 32 262 52 66 19 137 36 157 36 45 2 221 -52 323 -99 67 -31 80 -42
98 -77 39 -82 69 -293 70 -492 l0 -151 -37 -7 c-21 -3 -57 -6 -81 -6 -24 0
-73 -4 -110 -10 -37 -5 -107 -14 -157 -20 -121 -15 -256 -48 -294 -71 -17 -10
-39 -35 -48 -54 -9 -20 -26 -38 -38 -40 -77 -17 -150 -25 -220 -25 l-82 0 -31
39 c-25 31 -42 41 -82 50 -109 23 -506 8 -670 -26 -41 -9 -95 -18 -120 -21
-58 -5 -70 -16 -70 -62 0 -28 7 -43 30 -63 17 -15 30 -33 30 -40 3 -78 35
-237 56 -283 22 -46 54 -61 163 -75 148 -20 518 10 596 49 89 44 110 91 110
254 l0 127 45 5 c25 3 93 8 153 12 l107 6 0 -44 c1 -42 17 -126 39 -198 16
-54 66 -95 134 -110 47 -11 78 -11 175 0 155 16 270 36 363 61 127 34 146 70
156 282 4 91 10 133 20 143 9 9 13 30 11 61 l-3 48 -53 3 c-63 4 -73 18 -42
62 37 53 70 279 70 490 0 114 3 137 19 164 26 41 41 110 49 222 l7 91 -35 -23
c-53 -35 -128 -48 -195 -34 -31 6 -129 48 -218 92 -188 93 -257 117 -427 149
-107 20 -156 23 -335 23 -196 0 -220 -2 -362 -31 -83 -18 -160 -29 -171 -26
-11 2 -24 15 -30 28 -6 13 -22 31 -36 41 -14 9 -40 41 -58 72 -40 70 -96 127
-134 135 -55 12 -63 28 -48 89 5 23 3 28 -20 34 -15 3 -40 4 -56 0 -17 -3 -30
-2 -30 2 2 16 99 83 191 132 55 28 99 53 99 56 0 9 -18 3 -110 -39z m-482
-435 c2 -12 8 -22 13 -22 10 0 89 -158 89 -178 0 -35 -65 -17 -117 31 -45 42
-53 90 -22 123 22 23 22 25 4 38 -10 7 -15 18 -11 25 12 19 41 8 44 -17z
m2308 -1380 c28 -41 39 -120 31 -233 -8 -107 -18 -134 -56 -153 -126 -66 -551
-115 -628 -73 -56 30 -83 112 -83 254 0 108 11 139 58 159 59 24 67 18 33 -28
-39 -53 -32 -61 13 -13 39 41 69 44 74 7 5 -33 -17 -54 -50 -50 -15 3 -28 1
-28 -4 0 -16 39 -23 132 -23 89 0 93 1 96 23 4 23 26 30 38 11 4 -7 9 -8 17 0
7 7 2 25 -16 61 -24 46 -25 50 -7 50 36 0 141 -39 175 -65 37 -27 42 -24 22
12 -16 28 -58 61 -99 76 l-33 12 55 6 c30 3 95 6 145 5 l89 -1 22 -33z m-1189
-117 c32 -37 43 -87 43 -202 0 -108 -9 -144 -42 -180 -47 -51 -252 -86 -483
-83 -139 2 -221 18 -249 49 -21 23 -56 193 -56 272 0 59 18 120 39 133 10 7
172 35 201 36 8 0 -2 -14 -23 -31 -39 -32 -73 -86 -62 -97 4 -4 11 1 16 10 9
15 69 58 82 58 4 0 4 -20 0 -45 l-6 -46 27 12 c23 11 28 10 41 -7 12 -19 22
-20 102 -16 105 5 133 14 133 42 0 23 4 24 31 10 22 -12 24 -3 7 35 -6 14 -9
28 -6 31 8 7 81 -30 97 -50 8 -9 18 -16 23 -16 18 0 -45 71 -86 96 l-41 26 95
-6 c85 -5 97 -8 117 -31z m-407 -29 c6 -8 10 -25 8 -38 -2 -19 -9 -23 -38 -23
-29 0 -36 4 -38 23 -4 28 14 52 38 52 10 0 23 -7 30 -14z"/>
<path d="M2635 2135 c-120 -19 -195 -50 -195 -80 0 -24 28 -24 106 2 104 34
268 37 356 6 40 -13 61 -16 68 -9 17 17 12 25 -30 46 -76 39 -194 52 -305 35z"/>
<path d="M1475 2046 c-130 -26 -255 -81 -255 -112 0 -21 20 -17 92 15 138 63
168 66 473 48 30 -1 40 2 43 15 5 24 -52 38 -178 43 -67 3 -130 0 -175 -9z"/>
<path d="M3195 1918 l-28 -51 36 28 c24 18 37 36 37 51 0 37 -14 28 -45 -28z"/>
<path d="M770 1737 c0 -7 17 -23 38 -34 57 -33 87 -71 126 -160 37 -84 99
-309 90 -324 -3 -5 -1 -9 5 -9 5 0 18 -8 27 -17 17 -17 18 -17 11 0 -12 32
-35 120 -52 200 -10 47 -25 88 -39 105 -13 15 -27 38 -31 52 -27 89 -175 247
-175 187z"/>
<path d="M3102 1160 c0 -14 2 -19 5 -12 2 6 2 18 0 25 -3 6 -5 1 -5 -13z"/>
<path d="M1076 1140 c27 -149 212 -451 354 -575 25 -22 47 -43 50 -46 5 -5
104 -75 186 -131 53 -36 191 -100 274 -127 92 -31 242 -38 346 -17 144 29 254
81 355 167 213 184 335 334 400 492 41 98 36 116 -7 27 -65 -137 -141 -238
-299 -396 -82 -83 -171 -163 -196 -178 -65 -37 -206 -83 -292 -95 -84 -11
-242 0 -303 22 -75 28 -168 79 -298 167 -163 110 -284 214 -353 305 -43 56
-152 259 -212 395 -10 23 -10 22 -5 -10z"/>
<path d="M3081 1054 c0 -11 3 -14 6 -6 3 7 2 16 -1 19 -3 4 -6 -2 -5 -13z"/>
<path d="M2399 1055 c-4 -5 -9 -22 -13 -37 -15 -63 -124 -107 -215 -87 -50 10
-81 33 -113 79 l-17 25 0 -23 c-1 -12 14 -38 32 -58 85 -93 289 -68 325 41 12
37 13 81 1 60z"/>
<path d="M2445 765 c-71 -18 -186 -40 -255 -50 -140 -19 -163 -24 -141 -32 17
-7 200 14 301 33 88 17 227 62 235 75 8 11 16 13 -140 -26z"/>
<path d="M2450 665 c-34 -18 -40 -24 -23 -25 12 0 35 11 50 25 35 30 30 30
-27 0z"/>
</g>
</svg>
